
<svg width="64" height="64" viewBox="0 0 64 64" fill="none" xmlns="http://www.w3.org/2000/svg">
<circle cx="32" cy="32" r="32" fill="#F0EDFF"/>
<path d="M20.089 24H43.4756C43.9684 24 44.4409 24.1957 44.7893 24.5441C45.1377 24.8925 45.3334 25.3651 45.3334 25.8578V39.3333H18.6667V25.4222C18.6667 25.045 18.8166 24.6833 19.0833 24.4166C19.35 24.1498 19.7118 24 20.089 24Z" fill="#673AB7"/>
<path d="M29.0045 13.3333C28.6992 13.3286 28.396 13.3847 28.1126 13.4983C27.8291 13.6118 27.5711 13.7807 27.3536 13.9949C27.136 14.2092 26.9632 14.4646 26.8453 14.7462C26.7274 15.0279 26.6667 15.3302 26.6667 15.6356V35.92C26.6667 36.2253 26.7274 36.5276 26.8453 36.8093C26.9632 37.091 27.136 37.3464 27.3536 37.5606C27.5711 37.7749 27.8291 37.9437 28.1126 38.0573C28.396 38.1709 28.6992 38.2269 29.0045 38.2222H43.0668C43.6712 38.2129 44.2476 37.9662 44.6717 37.5355C45.0958 37.1047 45.3335 36.5245 45.3334 35.92V20.2222C45.3341 20.0095 45.2929 19.7987 45.2121 19.602C45.1312 19.4052 45.0124 19.2263 44.8623 19.0756L39.6356 13.8044C39.3306 13.5022 38.9184 13.3329 38.489 13.3333H29.0045Z" fill="url(#paint0_linear)"/>
<path d="M39.1555 17.2444C39.1544 17.5475 39.2131 17.8478 39.3282 18.1282C39.4434 18.4085 39.6128 18.6634 39.8267 18.8781C40.0406 19.0928 40.2948 19.2632 40.5747 19.3795C40.8546 19.4957 41.1547 19.5555 41.4578 19.5555H44.6453C44.9143 19.5555 45.0857 19.2769 44.8978 19.0844L39.6355 13.8044C39.4428 13.6162 39.1637 13.7876 39.1631 14.0569L39.1555 17.2444Z" fill="url(#paint1_linear)"/>
<path d="M42.0534 22.6667H30.0268C29.85 22.6667 29.6804 22.5964 29.5554 22.4714C29.4303 22.3464 29.3601 22.1768 29.3601 22C29.3601 21.8232 29.4303 21.6536 29.5554 21.5286C29.6804 21.4036 29.85 21.3333 30.0268 21.3333H42.0534C42.2303 21.3333 42.3998 21.4036 42.5248 21.5286C42.6499 21.6536 42.7201 21.8232 42.7201 22C42.7201 22.1768 42.6499 22.3464 42.5248 22.4714C42.3998 22.5964 42.2303 22.6667 42.0534 22.6667Z" fill="url(#paint2_linear)"/>
<path d="M35.3245 26.6667H29.9911C29.8143 26.6667 29.6447 26.5964 29.5197 26.4714C29.3947 26.3464 29.3245 26.1768 29.3245 26C29.3245 25.8232 29.3947 25.6536 29.5197 25.5286C29.6447 25.4036 29.8143 25.3333 29.9911 25.3333H35.3245C35.5013 25.3333 35.6708 25.4036 35.7959 25.5286C35.9209 25.6536 35.9911 25.8232 35.9911 26C35.9911 26.1768 35.9209 26.3464 35.7959 26.4714C35.6708 26.5964 35.5013 26.6667 35.3245 26.6667Z" fill="url(#paint3_linear)"/>
<path d="M42.0268 26.6667C41.85 26.6667 41.6804 26.5964 41.5554 26.4714C41.4303 26.3464 41.3601 26.1768 41.3601 26C41.3601 25.8232 41.4303 25.6536 41.5554 25.5286C41.6804 25.4036 41.85 25.3333 42.0268 25.3333C42.2036 25.3333 42.3732 25.4036 42.4982 25.5286C42.6232 25.6536 42.6934 25.8232 42.6934 26C42.6934 26.1768 42.6232 26.3464 42.4982 26.4714C42.3732 26.5964 42.2036 26.6667 42.0268 26.6667Z" fill="url(#paint4_linear)"/>
<path d="M38.6933 26.6667C38.5165 26.6667 38.3469 26.5964 38.2219 26.4714C38.0968 26.3464 38.0266 26.1768 38.0266 26C38.0266 25.8232 38.0968 25.6536 38.2219 25.5286C38.3469 25.4036 38.5165 25.3333 38.6933 25.3333C38.8701 25.3333 39.0397 25.4036 39.1647 25.5286C39.2897 25.6536 39.3599 25.8232 39.3599 26C39.3599 26.1768 39.2897 26.3464 39.1647 26.4714C39.0397 26.5964 38.8701 26.6667 38.6933 26.6667Z" fill="url(#paint5_linear)"/>
<path d="M22.7734 30.3467L22.5956 29.3333C22.5289 28.9598 22.333 28.6215 22.0421 28.3778C21.7512 28.1341 21.384 28.0003 21.0045 28H17.1734C16.723 27.9997 16.278 28.098 15.8697 28.2881C15.4614 28.4782 15.0997 28.7553 14.8099 29.1001C14.5202 29.445 14.3095 29.849 14.1926 30.284C14.0757 30.7189 14.0555 31.1742 14.1334 31.6178L17.2623 49.3333C17.329 49.7069 17.5249 50.0451 17.8158 50.2889C18.1066 50.5326 18.4739 50.6663 18.8534 50.6667H45.52C45.8995 50.6663 46.2668 50.5326 46.5577 50.2889C46.8485 50.0451 47.0444 49.7069 47.1112 49.3333L49.92 33.4044C49.9784 33.0687 49.9626 32.7243 49.8738 32.3953C49.785 32.0663 49.6253 31.7607 49.406 31.4999C49.1867 31.239 48.913 31.0293 48.6041 30.8854C48.2952 30.7415 47.9586 30.6668 47.6178 30.6667H23.1556C23.0646 30.6661 22.9767 30.6339 22.9069 30.5755C22.8371 30.517 22.7899 30.4361 22.7734 30.3467Z" fill="url(#paint6_linear)"/>
<path d="M26.6667 40.88H37.3334V50.6667H26.6667V40.88Z" fill="#44358C"/>
<path d="M32.0001 46.2133C34.9456 46.2133 37.3334 43.8255 37.3334 40.88C37.3334 37.9345 34.9456 35.5467 32.0001 35.5467C29.0546 35.5467 26.6667 37.9345 26.6667 40.88C26.6667 43.8255 29.0546 46.2133 32.0001 46.2133Z" fill="url(#paint7_linear)"/>
<path d="M32.0001 42.4178C31.2246 42.4184 30.4587 42.5882 29.7556 42.9152C29.0525 43.2422 28.4291 43.7185 27.929 44.3111C28.4296 44.9042 29.0537 45.3809 29.7576 45.7079C30.4615 46.0349 31.2283 46.2043 32.0045 46.2043C32.7807 46.2043 33.5475 46.0349 34.2514 45.7079C34.9553 45.3809 35.5794 44.9042 36.0801 44.3111C35.5789 43.7174 34.9542 43.2403 34.2494 42.9133C33.5447 42.5863 32.777 42.4171 32.0001 42.4178Z" fill="#F6F6F6"/>
<path d="M32 42.4178C31.3299 42.4212 30.6665 42.5509 30.0444 42.8C30.2091 43.1832 30.4826 43.5098 30.8309 43.7393C31.1793 43.9687 31.5873 44.091 32.0044 44.091C32.4216 44.091 32.8296 43.9687 33.1779 43.7393C33.5263 43.5098 33.7997 43.1832 33.9644 42.8C33.3396 42.5498 32.6731 42.4201 32 42.4178Z" fill="#F6F6F6"/>
<path d="M32 41.9556C33.1782 41.9556 34.1334 41.0004 34.1334 39.8222C34.1334 38.644 33.1782 37.6889 32 37.6889C30.8218 37.6889 29.8667 38.644 29.8667 39.8222C29.8667 41.0004 30.8218 41.9556 32 41.9556Z" fill="#F6F6F6"/>
<defs>
<linearGradient id="paint0_linear" x1="36.0356" y1="33.2178" x2="36.0356" y2="5.67999" gradientUnits="userSpaceOnUse">
<stop stop-color="white"/>
<stop offset="0.52" stop-color="#CCE2E6"/>
<stop offset="1" stop-color="#8FA1BB"/>
</linearGradient>
<linearGradient id="paint1_linear" x1="39.1555" y1="13.4844" x2="46.4726" y2="16.3385" gradientUnits="userSpaceOnUse">
<stop stop-color="#6648FF"/>
<stop offset="1" stop-color="#673AB7"/>
</linearGradient>
<linearGradient id="paint2_linear" x1="410.655" y1="41.5867" x2="410.655" y2="21.56" gradientUnits="userSpaceOnUse">
<stop stop-color="white"/>
<stop offset="0.52" stop-color="#CCE2E6"/>
<stop offset="1" stop-color="#8FA1BB"/>
</linearGradient>
<linearGradient id="paint3_linear" x1="194.391" y1="45.5867" x2="194.391" y2="25.56" gradientUnits="userSpaceOnUse">
<stop stop-color="white"/>
<stop offset="0.52" stop-color="#CCE2E6"/>
<stop offset="1" stop-color="#8FA1BB"/>
</linearGradient>
<linearGradient id="paint4_linear" x1="88.4002" y1="45.5867" x2="88.4002" y2="25.56" gradientUnits="userSpaceOnUse">
<stop stop-color="white"/>
<stop offset="0.52" stop-color="#CCE2E6"/>
<stop offset="1" stop-color="#8FA1BB"/>
</linearGradient>
<linearGradient id="paint5_linear" x1="80.0666" y1="45.5867" x2="80.0666" y2="25.56" gradientUnits="userSpaceOnUse">
<stop stop-color="white"/>
<stop offset="0.52" stop-color="#CCE2E6"/>
<stop offset="1" stop-color="#8FA1BB"/>
</linearGradient>
<linearGradient id="paint6_linear" x1="14.0869" y1="28" x2="46.0002" y2="50.3493" gradientUnits="userSpaceOnUse">
<stop stop-color="#6648FF"/>
<stop offset="1" stop-color="#673AB7"/>
</linearGradient>
<linearGradient id="paint7_linear" x1="32.0001" y1="47.0115" x2="32.0001" y2="34.7816" gradientUnits="userSpaceOnUse">
<stop stop-color="#16CEB9"/>
<stop offset="0.49" stop-color="#76FAD2"/>
<stop offset="1" stop-color="#0DA795"/>
</linearGradient>
</defs>
</svg>
